# xmcd
#
# Track frame offsets:
# 150
# 21569
# 37811
# 54820
# 76711
# 95688
# 117543
# 133664
# 151711
# 170464
# 194928
# 214390
# 232616
# 248682
# 266880
#
# Disc length: 3874 seconds
#
#
# Revision: 12
# Processed by: cddbd v1.5.2PL0 Copyright (c) Steve Scherf et al.
# Submitted via: FreeRIP 2.96 
#
DISCID=c80f200f
DTITLE=Rick e Renner - E voce...(Ao Vivo)
DYEAR=2005
DGENRE=Sertanejo
TTITLE0=A forca do amor
TTITLE1=Ela e de mais
TTITLE2=Doidinho por voce
TTITLE3=De volta pro futuro
TTITLE4=Homem carente
TTITLE5=Filha
TTITLE6=Brega de mais
TTITLE7=Nois tropica, mais nao cai
TTITLE8=Em qualquer lugar do mundo
TTITLE9=Pout pourri: Escolta de vagalumes - Porta do Mundo - Poeira da estrada
TTITLE10=Eu mereco
TTITLE11=Nos bares da cidade
TTITLE12=Eu sem voce
TTITLE13=Bebedeira
TTITLE14=Nossa Senhora Aparecida
EXTD=SERTANEJO
EXTT0=
EXTT1=
EXTT2=
EXTT3=
EXTT4=
EXTT5=
EXTT6=
EXTT7=
EXTT8=
EXTT9=
EXTT10=
EXTT11=
EXTT12=
EXTT13=
EXTT14=
PLAYORDER=
